<svg width="29" height="29" viewBox="0 0 29 29" fill="none" xmlns="http://www.w3.org/2000/svg">
<path d="M27.84 0H1.16C0.518375 0 0 0.518373 0 1.16V27.8399C0 28.4816 0.518375 29 1.16 29H27.84C28.4817 29 29 28.4816 29 27.8399V1.16C29 0.518373 28.4817 0 27.84 0ZM24.4905 8.46432H22.1742C20.3581 8.46432 20.0064 9.32715 20.0064 10.5959V13.3908H24.3419L23.7764 17.7661H20.0064V29H15.4861V17.7697H11.7052V13.3908H15.4861V10.1645C15.4861 6.41989 17.7734 4.37898 21.1157 4.37898C22.7179 4.37898 24.0918 4.49862 24.4941 4.55296V8.46432H24.4905Z" fill="white"/>
</svg>
