<svg width="30" height="30" viewBox="0 0 30 30" fill="none" xmlns="http://www.w3.org/2000/svg">
<path d="M22.0205 0H7.3402C3.28631 0 0 3.28631 0 7.34017V22.0205C0 26.0744 3.28631 29.3607 7.3402 29.3607H22.0205C26.0744 29.3607 29.3607 26.0744 29.3607 22.0205V7.34017C29.3607 3.28631 26.0744 0 22.0205 0Z" fill="white"/>
<path d="M20.5526 13.7554C20.7338 14.9772 20.5251 16.225 19.9562 17.3213C19.3873 18.4176 18.4873 19.3066 17.384 19.8619C16.2807 20.4173 15.0305 20.6105 13.8111 20.4143C12.5916 20.2181 11.4651 19.6423 10.5917 18.769C9.71838 17.8956 9.14264 16.7691 8.94642 15.5496C8.7502 14.3302 8.94343 13.08 9.49876 11.9767C10.0541 10.8734 10.9431 9.97334 12.0394 9.40447C13.1358 8.83568 14.3836 8.627 15.6053 8.80813C16.8516 8.99297 18.0053 9.57368 18.8962 10.4645C19.787 11.3554 20.3678 12.5092 20.5526 13.7554Z" stroke="black" stroke-width="2" stroke-linecap="round" stroke-linejoin="round"/>
<path d="M22.7545 6.60596H22.7684" stroke="black" stroke-width="2" stroke-linecap="round" stroke-linejoin="round"/>
</svg>
