<svg width="30" height="24" viewBox="0 0 30 24" fill="none" xmlns="http://www.w3.org/2000/svg">
<path d="M30 2.85093C28.8968 3.31953 27.6962 3.65685 26.4596 3.78822C27.7435 3.03711 28.705 1.85043 29.1636 0.450903C27.9588 1.15666 26.6389 1.65155 25.2626 1.91364C24.6874 1.30804 23.9916 0.825598 23.2188 0.49637C22.4459 0.167143 21.6125 -0.00182128 20.7704 1.4805e-05C17.3633 1.4805e-05 14.6233 2.71956 14.6233 6.05681C14.6233 6.5255 14.6809 6.9941 14.7747 7.44496C9.67314 7.18223 5.1232 4.78228 2.09832 1.10771C1.54715 2.03471 1.25832 3.09033 1.26187 4.16448C1.26187 6.26632 2.34708 8.11952 4.00193 9.20947C3.0267 9.17168 2.07431 8.90771 1.22222 8.43911V8.51362C1.22222 11.4569 3.33495 13.8959 6.15075 14.4569C5.62201 14.592 5.07815 14.6612 4.53192 14.6627C4.13172 14.6627 3.75316 14.6237 3.37099 14.5704C4.14975 16.9704 6.41747 18.7137 9.11791 18.7704C7.0052 20.4 4.35886 21.3586 1.4854 21.3586C0.969838 21.3586 0.493935 21.3409 0 21.2841C2.72564 23.0059 5.95961 24 9.44236 24C20.7488 24 26.9355 14.7764 26.9355 6.7704C26.9355 6.50767 26.9355 6.24503 26.9175 5.9823C28.1145 5.11952 29.1636 4.05095 30 2.85093Z" fill="white"/>
</svg>
